<svg xmlns="http://www.w3.org/2000/svg" version="1.1" width="600px" height="600px" xlink="http://www.w3.org/1999/xlink" style="overflow:hidden!important;"><g id="svga-group-wrapper" transform="scale(3 3)"><g id="svga-group-backs-single"><path id="SvgjsPath6211" d="M225 225H-25V-25h250V225z" fill="#00a8c6" stroke-width="none" opacity="1" stroke="none"></path></g><g id="svga-group-subwrapper" ><g id="svga-group-hair-back" ><path id="SvgjsPath6223" d="M100.5,100.5h-1v-1h1V100.5z" fill="#504543" stroke-width="none" opacity="1" stroke="none"></path></g><g id="svga-group-humanbody-single"><path id="SvgjsPath6065" d="M190.858 199.866c-6.008-10.158-13.474-11.973-19.628-13.936 -6.323-2.016-19.346-3.178-26.449-4.6 -6.86-1.373-23.153-5.789-23.339-13.488 -0.192-8.066 4.291-40.09 4.291-40.09H74.005c0 0 4.487 32.023 4.294 40.09 -0.184 7.699-16.48 12.115-23.341 13.488 -7.104 1.422-20.125 2.584-26.448 4.6 -6.156 1.963-13.624 3.777-19.632 13.936 -3.644 6.16-6.008 16.133-6.008 27.133h194C196.869 215.999 194.509 206.026 190.858 199.866z" fill="#d9a494" stroke-width="none" opacity="1" stroke="none"></path><path id="SvgjsPath6066" d="M121.442 167.843c2.495 10.929 18.165 13.698 26.293 15.325 21.909 4.379 33.772 5.134 42.297 19.539 2.903 4.916 5.459 15.864 5.962 24.153 1.835 0.291 0.531-17.432-5.136-26.994 -9.742-16.472-29.089-15.135-46.077-18.535C137.921 179.958 121.628 175.542 121.442 167.843L121.442 167.843zM78.558 167.843c-0.186 7.699-16.479 12.115-23.339 13.488 -16.988 3.4-36.335 2.063-46.077 18.535 -5.667 9.563-6.971 27.285-5.136 26.994 0.503-8.289 3.059-19.237 5.962-24.153 8.524-14.405 20.388-15.16 42.297-19.539C60.393 181.541 76.063 178.771 78.558 167.843L78.558 167.843z" fill="#e8c1b6" stroke-width="none" opacity="1" stroke="none"></path><path id="SvgjsPath6067" d="M51.206 189.513c0 0 28.641 0.299 33.473 1.885 2.314 0.758 8.372 5.633 8.372 5.633s-6.556-3.17-8.658-3.758C79.51 191.909 51.206 189.513 51.206 189.513zM99.795 199.999c2.053-0.041 7.887-3.799 7.887-3.799s-5.574 2.059-7.342 2.16c-1.491 0.086-6.366-1.238-6.366-1.238S98.112 200.032 99.795 199.999zM117.008 192.757c6.75-1.818 29.786-3.23 29.786-3.23s-23.791-0.516-30.51 1.725c-2.252 0.752-7.562 5.16-7.562 5.16S114.786 193.354 117.008 192.757z" fill="#ca8975" stroke-width="none" opacity="1" stroke="none"></path><path id="SvgjsPath6068" d="M190.858 199.866c-9.741-16.471-29.122-15.142-46.077-18.535 -6.86-1.373-23.153-5.789-23.339-13.488 -0.192-8.066 4.291-40.09 4.291-40.09H74.005c0 0 4.487 32.023 4.294 40.09 -0.184 7.699-16.48 12.115-23.341 13.488 -7.104 1.422-20.125 2.584-26.448 4.6 -6.156 1.963-13.624 3.777-19.632 13.936 -3.644 6.16-6.008 16.133-6.008 27.133h194C196.869 215.999 194.509 206.026 190.858 199.866z" fill="none" stroke="#ab5a41" stroke-width="1.5" opacity="1"></path></g><g id="svga-group-chinshadow-single"><path id="SvgjsPath6361" d="M100.002 171.005c10.695 0 16.372-2.606 20.836-5.726 0.384-8.456 2.755-26.607 3.782-34.206 -14.799-1.759-34.763-1.747-49.5 0.032 1.023 7.564 3.362 25.461 3.771 33.979C83.4 168.289 89.086 171.005 100.002 171.005z" fill="url(#SvgjsLinearGradient6362)" opacity="1"></path></g><g id="svga-group-clothes-single" ><path id="SvgjsPath6347" d="M1.21 226.811c-0.09-1.096 0.089-6.144 0.169-7.69 1.305-24.199 9.403-29.321 42.489-39.116 15.99-4.732 20.453-6.269 26.144-18.359 1.614-3.43 3.009-6.393 6.011-7.444 15.289 8.429 28.472 8.16 47.416 1.143 3.516 0.491 4.597 4.978 5.414 8.217 5.254 20.016 37.606 15.497 52.146 23.753 15.091 7.44 15.778 32.33 15.631 39.781 0.003 0.021 0.005 0.039 0.006 0.056C177.005 227.983 25.68 228.386 1.21 226.811z" fill="#1e78a2" stroke-width="none" opacity="1" stroke="none"></path><path id="SvgjsPath6348" d="M176.786 216.725c0.847-10.266 1.101-18.312 4.157-27.83 -4.426 14.753 1.476 26.354-7.266 34.423C174.774 220.681 176.516 219.998 176.786 216.725zM24 203c-1.608-3.938-3.672-7.405-4.444-13.604 -0.28 0.134-0.394-0.626-0.666-0.492 1.111 11.097 4.736 15.713 5.84 31.829C24.556 214.957 25.534 206.758 24 203zM121.459 156.274c-0.581 0.144-1.164 0.78-1.75 0.899 8.181 7.474 2.813 10.296 14.771 23.422 0.333-0.167 1.415-0.766 2.718-1.523C129.319 174.611 127.548 163.537 121.459 156.274zM126 180c0.447 1.342 1.101 2.482 1.859 3.603 -0.457 0.174-0.908 0.362-1.37 0.522 -2.363-3.073-4.632-6.134-6.139-12.489 -1.558-6.561-0.884-5.584-5.94-12.752 0.319-0.045 0.954-0.411 1.448-0.491C120.643 165.023 122.608 172.368 126 180zM133.719 181.005c-0.481 0.25-0.969 0.488-1.457 0.725 -6.715-7.001-9.364-15.664-13.832-23.789 0.307-0.059 0.907-0.818 1.188-0.876 3.964 4.215 3.947 6.305 5.151 10.061C126.338 171.828 130.603 177.889 133.719 181.005zM111.212 160.025c3.591 9.259 5.941 16.57 6.595 26.388 -0.469 0.085-0.937 0.17-1.407 0.242 -0.65-5.13-1.491-10.462-1.739-11.689 -0.992-4.915-2.781-11.482-4.401-14.82C110.578 160.113 110.894 160.063 111.212 160.025zM125.619 184.426c-0.555 0.185-1.115 0.352-1.676 0.519 -5.889-7.32-5.781-16.893-10.411-26.211 0.182-0.025 0.465-0.041 0.646-0.068 5.14 8.711 3.5 6.198 5.83 15.03C121.229 178.313 123.751 182.464 125.619 184.426zM115.509 186.785c-0.369 0.053-0.746 0.089-1.12 0.133 -1.339-9.809-1.877-17.542-5.437-26.651 0.249-0.022 0.499-0.037 0.747-0.062C112.922 168.123 114.231 179.352 115.509 186.785zM91.081 160.364c-3.267 8.975-3.961 15.986-4.586 25.452 -0.369-0.063-0.742-0.123-1.105-0.191 0.281-8.057 1.408-18.063 4.9-25.33C90.553 160.322 90.817 160.34 91.081 160.364zM75.389 182.894c-0.419-0.152-0.842-0.297-1.26-0.458 5.056-6.227 7.374-16.511 7.99-24.521 0.332 0.081 0.663 0.15 0.995 0.226C83.353 167.592 79.914 174.831 75.389 182.894zM89.779 160.245c-4.003 7.147-5.299 17.074-5.13 25.23 -0.319-0.063-0.618-0.137-0.93-0.203 -0.337-9.561 0.856-17.051 5.107-25.256C89.146 160.056 89.455 160.212 89.779 160.245zM66.165 179.01c-0.527-0.256-1.054-0.51-1.576-0.774 2.807-1.871 5.653-4.711 7.56-7.97 1.716-2.93 5.611-11.628 6.41-14.44 0.269 0.104 0.543 0.189 0.816 0.282C77.312 165.13 72.909 173.355 66.165 179.01zM73.509 182.205c-0.559-0.215-1.106-0.456-1.661-0.682 4.743-7.656 6.889-16.213 7.854-25.317 0.614 0.203 1.23 1.398 1.847 1.56C80.13 166.507 78.633 174.861 73.509 182.205zM78.229 155.705c-0.65 1.82-1.54 3.55-2.45 5.311 -2.167 4.379-4.345 11.597-11.83 16.88 -0.542-0.276-1.08-0.564-1.618-0.854 6.891-5.698 10.479-14.131 14.154-21.908C77.048 155.346 77.63 155.466 78.229 155.705z" fill="#0c6893" stroke-width="none" opacity="1" stroke="none"></path><path id="SvgjsPath6349" d="M60.172 177.15l-1.928-1.29c-16.809 6.537-42.125 8.875-52 25.125 -3.719 6.119-4.913 15.014-4.913 26.014 2.027-5.485 0.759-14.439 6.636-23.292C19.401 186.481 39.771 188.32 60.172 177.15zM190.033 203.707c5.067 9.34 4.608 17.807 6.636 23.292 0-11-2.281-19.354-4.913-26.014 -7.483-18.933-33.191-16.791-50-23.328l-1.928 1.29C160.229 190.117 178.203 181.902 190.033 203.707z" fill="#3389b1" stroke-width="none" opacity="1" stroke="none"></path><path id="SvgjsPath6350" d="M181.049 187.226c-14.496-8.229-46.88-3.804-52.1-23.69 -0.653-2.542-1.702-7.762-5.53-8.29 -0.188 0.037-0.761-0.129-0.76-0.129 -15.076 5.88-30.845 7.63-46.67-1.011 -7.111 2.493-5.169 15.246-18.61 21.22 -5.86 2.654-13.6 4.395-24.6 7.98 -25.782 8.41-30.463 16.581-31.5 35.81 -0.073 1.41-0.273 6.859-0.16 7.79 27.119 1.767 181.426 0.968 195.61 0.34 0.01-0.05 0.01-0.1 0-0.149C197.017 212.672 193.824 193.524 181.049 187.226zM123.799 155.824c7.203 2.412-0.831 13.455 15.84 21.791 -2.201 1.354-4.629 2.715-5.159 2.98 -11.958-13.126-6.443-15.043-14.173-23.123C121.739 156.826 122.459 156.244 123.799 155.824zM119.917 157.563c3.964 4.215 3.648 5.807 4.853 9.563 1.568 4.703 5.833 10.764 8.949 13.88 -2.33 1.211-4.75 2.261-7.229 3.12 -2.363-3.073-4.408-6.164-6.039-12.489 -1.438-5.573-0.936-6.018-5.741-12.652C115.709 158.843 118.341 157.886 119.917 157.563zM114.278 159.063c5.14 8.711 3.4 5.8 5.73 14.632 1.22 4.618 3.742 8.769 5.61 10.73 -3.01 1-6.1 1.75-9.22 2.229 -0.65-5.13-1.414-10.458-1.64-11.689 -1-5.454-2.881-11.482-4.501-14.82C111.539 160.016 113.009 159.254 114.278 159.063zM109.699 160.205c3.223 7.918 4.532 19.146 5.81 26.58 -2.942 0.418-6.063 0.57-8.979 0.57 -0.001-0.025-1.897-15.809-2.641-26.162C105.917 160.893 108.049 160.662 109.699 160.205zM103.389 161.213c0.05 11.677 0.956 14.712 2.41 26.152 -3.489 0.01-6.97-0.149-10.459-0.45 2.365-19.61 3.55-25.632 3.55-25.632C100.732 161.283 102.403 161.246 103.389 161.213zM98.269 161.283c-2.776 15.35-3.252 19.064-3.58 25.572 -3.189-0.268-6.325-0.668-9.3-1.23 0.281-8.057 1.408-18.063 4.9-25.33C92.939 160.565 95.609 161.273 98.269 161.283zM89.779 160.245c-4.003 7.147-5.299 17.074-5.13 25.23 -3.873-0.771-7.202-1.758-10.52-3.04 5.056-6.227 7.374-16.511 7.99-24.521C84.642 158.53 87.31 159.698 89.779 160.245zM81.549 157.766c-1.419 8.741-2.916 17.096-8.04 24.439 -3.04-1.17-6.02-2.5-8.92-3.97 2.807-1.871 5.653-4.711 7.56-7.97 1.716-2.93 5.511-11.429 6.31-14.241C79.439 156.404 80.549 157.505 81.549 157.766zM75.789 154.804c0.77 0.471 1.49 0.761 2.34 1.101 -0.65 1.82-1.44 3.351-2.35 5.111 -2.167 4.379-4.345 11.597-11.83 16.88 -1.39-0.71-2.77-1.46-4.12-2.25C71.408 169.404 69.452 157.678 75.789 154.804zM1.559 226.655c0.136-3.996 0.887-16.321 3.59-22.41 2.73-6.149 8-10.39 13.88-13.52 -0.402 9.421 4.184 10.589 4.5 21.85 0.09 3.41 0.56 6.76 1.13 10.12 -0.26-3.53-0.37-7.03-0.35-10.57 0.058-10.247-4.58-12.021-4.58-21.779 7.43-3.782 15.967-6.216 24.41-8.761 4.94-1.479 9.94-3.029 14.56-5.359 13.184 8.692 25.449 13.279 47.35 13.149 15.873 0 25.119-4.104 34.9-11.109 13.149 6.077 30.126 5.28 39.46 10.91 -1.655 4.925-2.791 7.494-3.1 10.18 -0.715 6.32 0.347 10.814-0.561 16.62 -0.53 3.37-3.12 5.85-3.82 9.16 2.036-6.202 5.709-3.93 5.261-18.551 -0.257-8.245 0.476-8.458 2.779-17.069 11.486 7.199 14.441 24.116 15.091 37.58C162.822 226.877 14.665 226.935 1.559 226.655z" fill="#004f74" stroke-width="none" opacity="1" stroke="none"></path></g><g id="svga-group-head" ><g id="svga-group-ears-left" style="display:none;"><path id="SvgjsPath6342" d="M46.778 83.745c-2.623-1.422-8.575-8.182-11.138-7.219 -1.655 0.62-2.377 5.286-2.638 7.174 -0.333 2.425-0.929 7.405-0.328 9.781 0.725 2.866 3.631 8.169 5.37 10.589 1.468 2.039 5.211 5.568 6.407 7.769 0.759 1.396 1.493 5.159 4.083 4.916 1.674-0.157 5.537-2.95 5.744-4.274C55.406 105.296 51.943 86.543 46.778 83.745z" fill="#d9a494" stroke="#ab5a41" stroke-width="1.5" opacity="1"></path><path id="SvgjsPath6343" d="M43.313 99.25c-0.125-0.534 0.006-1.432 0.133-2.3 0.115-0.791 0.224-1.538 0.158-2.066 -0.251-1.978-1.66-5.737-2.578-7.775 -1.059-2.343-2.771-5.296-4.919-6.057 -0.888-0.316-1.473 0.061-1.813 0.443 -0.248 0.281-0.305 0.61-0.223 0.649 0.082 0.039 0.266-0.234 0.535-0.491 0.219-0.21 0.542-0.391 0.983-0.354 -0.178 0.985-1.091 6.32-0.696 9.957 0.311 2.86 1.489 4.996 1.673 5.316 0.028 0.337 0.073 0.667 0.139 0.987 0.869 4.175 4.648 8.921 5.963 10.476 0.243 0.285 0.496 0.456 0.56 0.388 0.062-0.07-0.087-0.354-0.33-0.642 -1.298-1.545-5.042-6.274-5.879-10.302 -0.89-4.273 2.167-10.609 2.849-11.949 0.348 0.629 0.643 1.234 0.87 1.737 0.179 0.396 0.378 0.858 0.581 1.358 -0.402 0.699-3.211 5.802-2.187 9.886 0.38 1.505 2.088 3.447 3.223 3.979 0.624 0.293 0.859 0.731 1.13 1.237 0.314 0.589 0.673 1.255 1.708 1.738 0.211 0.097 0.402 0.138 0.571 0.138 0.293 0 0.515-0.122 0.679-0.271 0.017 0.258 0.016 0.588 0.007 0.893 -0.01 0.395 0.041 0.717 0.129 0.725s0.182-0.305 0.192-0.696c0.016-0.483 0.013-1.081-0.067-1.367 -0.232-0.842-0.942-1.792-1.694-2.798C44.27 101.098 43.504 100.074 43.313 99.25zM36.538 95.548c-2.035-6.554 0-12.573 0.458-13.472 0.795 0.754 2.108 2.125 2.679 3.111C39.258 85.976 36.623 91.14 36.538 95.548zM45.318 105.137c-0.938-0.438-1.253-1.024-1.557-1.591 -0.275-0.514-0.56-1.044-1.281-1.383 -0.157-0.074-0.33-0.186-0.505-0.314 -2.324-5.75 0.254-8.264 0.899-8.779 0.199 0.703 0.346 1.348 0.411 1.865 0.061 0.475-0.05 1.229-0.156 1.959 -0.132 0.904-0.268 1.839-0.127 2.445 0.211 0.902 0.999 1.957 1.76 2.977 0.677 0.905 1.373 1.839 1.609 2.601C46.271 105.067 45.949 105.43 45.318 105.137z" fill="#ab5a41" stroke-width="none" opacity="1" stroke="none"></path></g><g id="svga-group-ears-right" style="display:none;"><path id="SvgjsPath6344" d="M152.961 83.745c2.623-1.422 8.574-8.182 11.137-7.219 1.656 0.62 2.379 5.286 2.639 7.174 0.334 2.425 0.928 7.405 0.328 9.781 -0.725 2.866-3.631 8.169-5.371 10.589 -1.467 2.039-5.211 5.568-6.406 7.769 -0.76 1.396-1.492 5.159-4.084 4.916 -1.674-0.157-5.535-2.95-5.744-4.274C144.332 105.296 147.795 86.543 152.961 83.745z" fill="#d9a494" stroke="#ab5a41" stroke-width="1.5" opacity="1"></path><path id="SvgjsPath6345" d="M154.729 102.088c-0.752 1.006-1.463 1.957-1.695 2.798 -0.078 0.286-0.082 0.884-0.066 1.367 0.012 0.392 0.105 0.704 0.193 0.696s0.139-0.33 0.129-0.725c-0.01-0.305-0.01-0.635 0.006-0.893 0.164 0.148 0.387 0.271 0.68 0.271 0.168 0 0.359-0.041 0.57-0.138 1.035-0.483 1.395-1.149 1.709-1.738 0.271-0.506 0.506-0.943 1.131-1.237 1.133-0.532 2.842-2.473 3.223-3.979 1.023-4.084-1.785-9.187-2.188-9.886 0.203-0.5 0.402-0.962 0.582-1.358 0.225-0.503 0.521-1.108 0.869-1.737 0.682 1.34 3.738 7.676 2.848 11.949 -0.838 4.028-4.582 8.757-5.879 10.302 -0.242 0.288-0.393 0.571-0.33 0.642 0.064 0.068 0.318-0.103 0.561-0.388 1.314-1.555 5.094-6.301 5.963-10.476 0.066-0.32 0.111-0.65 0.139-0.987 0.184-0.32 1.363-2.457 1.674-5.316 0.395-3.637-0.518-8.972-0.695-9.957 0.441-0.038 0.764 0.143 0.982 0.354 0.268 0.257 0.453 0.53 0.535 0.491 0.08-0.039 0.023-0.369-0.223-0.649 -0.342-0.382-0.926-0.759-1.813-0.443 -2.148 0.761-3.861 3.713-4.92 6.057 -0.92 2.038-2.326 5.797-2.578 7.775 -0.066 0.528 0.043 1.275 0.158 2.066 0.127 0.868 0.256 1.766 0.133 2.3C156.234 100.074 155.469 101.098 154.729 102.088zM160.064 85.187c0.57-0.986 1.883-2.357 2.678-3.111 0.457 0.899 2.494 6.918 0.459 13.472C163.115 91.14 160.48 85.976 160.064 85.187zM153.367 104.916c0.236-0.762 0.932-1.695 1.609-2.601 0.762-1.02 1.549-2.075 1.76-2.977 0.141-0.606 0.006-1.541-0.127-2.445 -0.105-0.73-0.217-1.485-0.156-1.959 0.066-0.517 0.213-1.162 0.412-1.865 0.645 0.515 3.223 3.029 0.898 8.779 -0.176 0.129-0.348 0.241-0.504 0.314 -0.723 0.339-1.008 0.869-1.281 1.383 -0.305 0.567-0.619 1.154-1.559 1.591C153.789 105.43 153.467 105.067 153.367 104.916z" fill="#ab5a41" stroke-width="none" opacity="1" stroke="none"></path></g><g id="svga-group-faceshape-wrap" ><g id="svga-group-faceshape-single" ><path id="SvgjsPath6358" d="M100.002 0.867C66.384 0.919 39.082 28.09 39.134 61.564c0.008 5.316 0.704 10.471 2.002 15.382h0.001C41.15 77 52.68 114.915 55.158 127.369c1.382 6.945 9.063 15.403 16.531 20.513 6.967 4.767 11.263 11.388 28.313 11.388s21.346-6.621 28.313-11.388c7.468-5.109 15.149-13.567 16.531-20.513 2.479-12.454 14.009-50.37 14.02-50.423h0.002c1.298-4.911 1.994-10.066 2.002-15.382C160.923 28.09 133.62 0.919 100.002 0.867z" fill="#d9a494" stroke-width="none" opacity="1"></path><path id="SvgjsPath6359" d="M146.772 22.738c7.478 10.183 11.917 22.87 11.898 36.626 -0.009 5.316-0.679 10.471-1.93 15.382h-0.002c-0.011 0.053-11.124 37.969-13.512 50.423 -1.335 6.945-8.737 15.403-15.935 20.513 -6.718 4.767-10.854 11.388-27.291 11.388 -16.434 0-20.575-6.621-27.291-11.388 -7.197-5.109-14.602-13.567-15.931-20.513 -2.391-12.454-13.504-50.37-13.515-50.423h0c-1.252-4.911-1.922-10.066-1.931-15.382 -0.021-13.752 4.416-26.435 11.889-36.617 -8.812 10.525-14.112 24.056-14.089 38.817 0.008 5.316 0.704 10.471 2.002 15.382h0.001C41.15 77 52.68 114.915 55.158 127.369c1.382 6.945 9.063 15.403 16.531 20.513 6.967 4.767 11.263 11.388 28.313 11.388s21.346-6.621 28.313-11.388c7.468-5.109 15.149-13.567 16.531-20.513 2.479-12.454 14.009-50.37 14.02-50.423h0.002c1.298-4.911 1.994-10.066 2.002-15.382C160.894 46.799 155.589 33.264 146.772 22.738z" fill="#d19684" stroke-width="none" opacity="1"></path><path id="SvgjsPath6360" d="M100.002 0.867C66.384 0.919 39.082 28.09 39.134 61.564c0.008 5.316 0.704 10.471 2.002 15.382h0.001C41.15 77 52.68 114.915 55.158 127.369c1.382 6.945 9.063 15.403 16.531 20.513 6.967 4.767 11.263 11.388 28.313 11.388s21.346-6.621 28.313-11.388c7.468-5.109 15.149-13.567 16.531-20.513 2.479-12.454 14.009-50.37 14.02-50.423h0.002c1.298-4.911 1.994-10.066 2.002-15.382C160.923 28.09 133.62 0.919 100.002 0.867z" fill="none" stroke="#ab5a41" stroke-width="1.5" opacity="1"></path></g></g><g id="svga-group-mouth-single" ><path id="SvgjsPath6331" d="M100.091 139.322c-4.952 0-6.142-3.033-6.142-3.033 6.246 2.316 11.836-0.124 11.836-0.124S104.446 139.322 100.091 139.322z" fill="url(#SvgjsLinearGradient6332)" opacity="1"></path><path id="SvgjsPath6335" d="M85.595 129.671c2.677-0.132 7.545-1.077 10.096-0.988 1.319 0.046 2.63 0.953 4.007 1.242 0.958 0.202 3.935-1.1 4.915-1.162 2.572-0.162 7.409 0.744 9.771 0.92 0.13 0.011 0 0 0 0s-5.776 7.727-14.463 7.725C90.09 137.406 85.595 129.671 85.595 129.671S85.463 129.678 85.595 129.671z" fill="#92002a" stroke="#830026" stroke-width="0.75" opacity="1"></path><path id="SvgjsPath6336" d="M114.739 129.405c-0.045-0.131-0.461-0.189-0.624-0.139 -0.3 0.094-0.663 0.521-1.313 0.686 -0.748 0.191-5.021 1.431-6.193 1.49 -2.365 0.118-4.438 0.943-6.76 0.938 -2.323-0.005-4.34-0.929-6.716-1.058 -1.18-0.065-5.194-1.216-5.947-1.4 -0.65-0.16-0.89-0.574-1.162-0.686 -0.189-0.077-0.652-0.02-0.743 0.105 -0.079 0.107 0.088 0.609 0.2 0.75 0.271 0.336 1.103 0.506 1.667 0.647 0.779 0.199 4.759 1.366 5.949 1.433 2.305 0.13 4.308 1.125 6.612 1.127 2.306 0.003 4.405-0.904 6.729-1.022 1.195-0.062 5.53-1.313 6.332-1.513 0.58-0.146 1.388-0.399 1.672-0.68C114.58 129.95 114.785 129.538 114.739 129.405z" fill="#64001d" stroke-width="none" opacity="1" stroke="none"></path><path id="SvgjsPath6337" d="M99.799 136.138c-3.914 0-7.707-1.246-10.289-3.693 1.36 0.19 2.83 0.207 4.269 0.403 1.773 0.242 3.429 0.921 5.248 1.034 1.968 0.125 3.916-0.495 5.886-0.841 1.644-0.289 4.21-1.067 5.742-1.302C107.729 133.982 103.577 136.138 99.799 136.138zM105.256 131.043c1.49-0.149 3.855-0.879 5.226-1.04 -1.406-0.413-3.829-0.279-5.576-0.441 -1.506-0.139-3.244 0.861-4.817 1.016 -1.774 0.175-2.94-1.233-4.607-1.369 -1.809-0.147-3.787 0.559-5.336 0.915 1.387 0.188 2.877 0.239 4.309 0.517 1.753 0.341 3.405 0.992 5.223 1.054C101.537 131.757 103.419 131.226 105.256 131.043z" fill="#a1103a" stroke-width="none" opacity="1" stroke="none"></path><path id="SvgjsPath6338" d="M105.695 133.406c-0.308 0.01-0.625 0.025-0.93 0.051 -0.351 0.028-0.668 0.069-0.961 0.123 -0.538 0.099-1.074 0.233-1.638 0.369 -0.888 0.216-1.726 0.392-2.662 0.391 -0.15 0-0.301-0.007-0.452-0.017 -0.764-0.055-1.521-0.217-2.191-0.412 -0.693-0.204-1.353-0.401-2.019-0.492 -0.128-0.017-0.259-0.029-0.387-0.042 -0.409-0.036-0.836-0.052-1.255-0.063 1.734 1.396 4.128 2.038 6.468 2.041C102.079 135.356 103.946 134.512 105.695 133.406z" fill="#b1234c" stroke-width="none" opacity="1" stroke="none"></path></g><g id="svga-group-eyes-left" ><g id="svga-group-eyesback-left"><path id="SvgjsPath6231" d="M60.632 83.957c1.226-1.179 9.091-2.674 13.631-2.075 7.183 0.947 13 7.285 13 7.285s-4.836 3.083-13.61 3.56C67.873 93.042 62.061 89.309 60.632 83.957z" fill="url(#SvgjsRadialGradient6232)" opacity="1"></path></g><g id="svga-group-eyesiriswrapper-left" transform="translate(-1 0.25)"><g id="svga-group-eyesiriscontrol-left" ><g id="svga-group-eyesiris-left" ><path id="SvgjsPath6289" d="M72.886 86.517l-6.655-1.519C66.084 85.643 66 86.311 66 86.999c0 0.689 0.085 1.357 0.231 2.001l8.768-2.001L72.886 86.517z" fill="#ea2e2e" stroke-width="none" opacity="1"></path><path id="SvgjsPath6290" d="M67.969 92.608c0.838 1.049 1.907 1.902 3.129 2.492l3.9-8.099L67.969 92.608z" fill="#f09330" stroke-width="none" opacity="1"></path><path id="SvgjsPath6291" d="M75.001 95.999c1.399 0 2.719-0.329 3.899-0.898l-3.9-8.1L75.001 95.999z" fill="#64398e" stroke-width="none" opacity="1"></path><path id="SvgjsPath6292" d="M75 87l7.032 5.607c0.83-1.039 1.432-2.265 1.736-3.606L75 87z" fill="#393b97" stroke-width="none" opacity="1"></path><path id="SvgjsPath6293" d="M75 86.999l2.738-0.625 6.03-1.376c-0.305-1.341-0.906-2.567-1.736-3.606L75 86.999z" fill="#00aa4f" stroke-width="none" opacity="1"></path><path id="SvgjsPath6294" d="M78.9 78.897c-1.182-0.57-2.501-0.898-3.9-0.898v8.998L78.9 78.897z" fill="#fae636" stroke-width="none" opacity="1"></path><path id="SvgjsPath6295" d="M71.098 78.898c-1.222 0.59-2.291 1.442-3.13 2.492l7.03 5.607L71.098 78.898z" fill="#9c2d91" stroke-width="none" opacity="1"></path><path id="SvgjsPath6296" d="M75 86.999L83.769 89C83.915 88.356 84 87.688 84 86.999s-0.085-1.357-0.231-2.001l-6.03 1.376L75 86.999z" fill="#ea2e2e" stroke-width="none" opacity="1"></path><path id="SvgjsPath6297" d="M75 86.999L75 86.999 75.001 87l3.9 8.1c1.223-0.59 2.293-1.443 3.131-2.493L75 86.999 75 86.999z" fill="#9b328d" stroke-width="none" opacity="1"></path><path id="SvgjsPath6298" d="M75 87L75 87 75 87 75 87 75 87 75 87 75 87l-3.9 8.1c1.181 0.57 2.501 0.899 3.9 0.899h0.001L75 87 75 87z" fill="#fde92b" stroke-width="none" opacity="1"></path><path id="SvgjsPath6299" d="M74.999 87L74.999 87 74.999 87 74.999 87 74.999 87 74.999 87 74.999 87 74.999 87 74.999 87 74.999 87 74.999 87l-8.768 2.001c0.305 1.341 0.907 2.567 1.737 3.607L74.999 87 74.999 87z" fill="#00aa4f" stroke-width="none" opacity="1"></path><path id="SvgjsPath6300" d="M75 86.998L75 86.998 75 86.998 75 86.998 75 86.998 75 86.998 75 86.998v-8.999c-1.4 0-2.72 0.329-3.901 0.899L75 86.998 75 86.998z" fill="#65378f" stroke-width="none" opacity="1"></path><path id="SvgjsPath6301" d="M75 86.999L75 86.999 75 86.999l7.032-5.608c-0.838-1.05-1.908-1.903-3.131-2.493l-3.9 8.1L75 86.999z" fill="#ec9236" stroke-width="none" opacity="1"></path><path id="SvgjsPath6302" d="M74.999 86.999L74.999 86.999l-7.031-5.608c-0.83 1.04-1.432 2.266-1.736 3.606l6.654 1.519L74.999 86.999z" fill="#393b97" stroke-width="none" opacity="1"></path><path id="SvgjsPath6303" d="M75 77.999c4.971 0 9 4.029 9 9s-4.029 9-9 9 -9-4.029-9-9S70.029 77.999 75 77.999z" fill="#000000" stroke-width="none" opacity="0.3"></path><path id="SvgjsPath6304" d="M78.5 86.999c0 1.933-1.566 3.5-3.5 3.5s-3.5-1.567-3.5-3.5 1.566-3.5 3.5-3.5S78.5 85.066 78.5 86.999z" fill="#000000" stroke-width="none" opacity="1"></path><path id="SvgjsPath6305" d="M71.653 93.108c-0.47 0.469-1.396 0.304-2.069-0.369 -0.674-0.673-0.84-1.601-0.369-2.07 0.469-0.47 1.395-0.304 2.068 0.369C71.956 91.712 72.122 92.639 71.653 93.108z" fill="#ffffff" stroke-width="none" opacity="0.7"></path><path id="SvgjsPath6306" d="M81.809 85.326c-0.702 0.703-2.403 0.142-3.8-1.254 -1.396-1.396-1.957-3.098-1.256-3.8 0.703-0.703 2.405-0.142 3.8 1.254C81.949 82.922 82.512 84.624 81.809 85.326z" fill="#ffffff" stroke-width="none" opacity="0.9"></path></g></g></g><g id="svga-group-eyesfront-left"><path id="SvgjsPath6256" d="M55.332 88c0 13.808 8.06 24.999 18 24.999s18-11.191 18-24.999c0-13.809-8.06-25.001-18-25.001S55.332 74.191 55.332 88zM60.632 83.957c1.226-1.179 9.091-2.674 13.631-2.075 7.183 0.947 13 7.285 13 7.285s-4.836 3.083-13.61 3.56C67.873 93.042 62.061 89.309 60.632 83.957z" fill="#d9a494" stroke-width="none" opacity="1" stroke="none"></path><path id="SvgjsPath6257" d="M74.182 96.592c9.412 2.223 18.451-1.61 20.194-8.565 1.738-6.956-4.478-14.395-13.892-16.622 -9.414-2.224-18.453 1.609-20.195 8.565C58.55 86.927 64.765 94.365 74.182 96.592zM60.632 83.957c1.226-1.179 9.091-2.674 13.631-2.075 7.183 0.947 13 7.285 13 7.285s-4.836 3.083-13.61 3.56C67.873 93.042 62.061 89.309 60.632 83.957z" fill="url(#SvgjsRadialGradient6258)" opacity="1"></path><path id="SvgjsPath6262" d="M60.632 83.957c1.226-1.179 9.091-2.674 13.631-2.075 7.183 0.947 13 7.285 13 7.285s-4.836 3.083-13.61 3.56C67.873 93.042 62.061 89.309 60.632 83.957z" fill="url(#SvgjsRadialGradient6263)" opacity="1"></path><path id="SvgjsPath6266" d="M87.433 83.657c-6.502-4.251-4.054-3.09-16.23-6.703 3.344 0.5 9.572 2.066 11.707 3.32C84.073 80.928 86.433 82.783 87.433 83.657z" fill="#ab5a41" stroke-width="none" opacity="1" stroke="none"></path><path id="SvgjsPath6267" d="M55.34 82.979c0 0 2.084 1.306 3.713 1.307 0.129 0.766 2.241 4.259 5.873 6.344 5.49 3.154 11.897 2.18 18.014 0.643 2.995-0.746 2.81-1.52 7.773-2.07 -3.897-1.57-3.485-2.497-8.891-5.423 2.468 0.471 5.783 2.315 5.783 2.315 -1.237-1.452-9.917-6.796-23.826-7.508 0 0 4.649 1.088 6.399 1.769 -8.05 1.097-10.242-0.113-10.669-0.435 0.357 0.302 1.188 1.24 3.004 1.852 -1.878 0.143-5.312-0.867-5.312-0.867s0.867 0.826 2.628 1.965C58.323 83.595 55.34 82.979 55.34 82.979zM60.632 84.074c1.226-1.137 9.091-2.58 13.631-2.001 7.183 0.913 13 7.026 13 7.026s-4.836 2.974-13.61 3.434C67.873 92.836 62.061 89.236 60.632 84.074z" fill="#2c1630" stroke-width="none" opacity="1" stroke="none"></path></g></g><g id="svga-group-eyes-right" ><g id="svga-group-eyesback-right"><path id="SvgjsPath6239" d="M139.368 83.957c-1.226-1.179-9.091-2.674-13.631-2.075 -7.183 0.947-13 7.285-13 7.285s4.836 3.083 13.61 3.56C132.127 93.042 137.939 89.309 139.368 83.957z" fill="url(#SvgjsRadialGradient6240)" opacity="1"></path></g><g id="svga-group-eyesiriswrapper-right" transform="translate(1 0.25)"><g id="svga-group-eyesiriscontrol-right" ><g id="svga-group-eyesiris-right" ><path id="SvgjsPath6307" d="M122.886 86.517l-6.655-1.519c-0.146 0.645-0.23 1.313-0.23 2.001 0 0.689 0.085 1.357 0.231 2.001l8.768-2.001L122.886 86.517z" fill="#ea2e2e" stroke-width="none" opacity="1"></path><path id="SvgjsPath6308" d="M117.969 92.608c0.838 1.049 1.907 1.902 3.129 2.492l3.9-8.099L117.969 92.608z" fill="#f09330" stroke-width="none" opacity="1"></path><path id="SvgjsPath6309" d="M125.001 95.999c1.399 0 2.719-0.329 3.899-0.898l-3.9-8.1L125.001 95.999z" fill="#64398e" stroke-width="none" opacity="1"></path><path id="SvgjsPath6310" d="M125 87l7.032 5.607c0.83-1.039 1.432-2.265 1.736-3.606L125 87z" fill="#393b97" stroke-width="none" opacity="1"></path><path id="SvgjsPath6311" d="M125 86.999l2.738-0.625 6.03-1.376c-0.305-1.341-0.906-2.567-1.736-3.606L125 86.999z" fill="#00aa4f" stroke-width="none" opacity="1"></path><path id="SvgjsPath6312" d="M128.9 78.897c-1.182-0.57-2.501-0.898-3.9-0.898v8.998L128.9 78.897z" fill="#fae636" stroke-width="none" opacity="1"></path><path id="SvgjsPath6313" d="M121.098 78.898c-1.222 0.59-2.291 1.442-3.13 2.492l7.03 5.607L121.098 78.898z" fill="#9c2d91" stroke-width="none" opacity="1"></path><path id="SvgjsPath6314" d="M125 86.999L133.769 89c0.146-0.645 0.231-1.313 0.231-2.001s-0.085-1.357-0.231-2.001l-6.03 1.376L125 86.999z" fill="#ea2e2e" stroke-width="none" opacity="1"></path><path id="SvgjsPath6315" d="M125 86.999L125 86.999 125.001 87l3.9 8.1c1.223-0.59 2.293-1.443 3.131-2.493L125 86.999 125 86.999z" fill="#9b328d" stroke-width="none" opacity="1"></path><path id="SvgjsPath6316" d="M125 87L125 87 125 87 125 87 125 87 125 87 125 87l-3.9 8.1c1.181 0.57 2.501 0.899 3.9 0.899h0.001L125 87 125 87z" fill="#fde92b" stroke-width="none" opacity="1"></path><path id="SvgjsPath6317" d="M124.999 87L124.999 87 124.999 87 124.999 87 124.999 87 124.999 87 124.999 87 124.999 87 124.999 87 124.999 87 124.999 87l-8.768 2.001c0.305 1.341 0.907 2.567 1.737 3.607L124.999 87 124.999 87z" fill="#00aa4f" stroke-width="none" opacity="1"></path><path id="SvgjsPath6318" d="M125 86.998L125 86.998 125 86.998 125 86.998 125 86.998 125 86.998 125 86.998v-8.999c-1.4 0-2.72 0.329-3.901 0.899L125 86.998 125 86.998z" fill="#65378f" stroke-width="none" opacity="1"></path><path id="SvgjsPath6319" d="M125 86.999L125 86.999 125 86.999l7.032-5.608c-0.838-1.05-1.908-1.903-3.131-2.493l-3.9 8.1L125 86.999z" fill="#ec9236" stroke-width="none" opacity="1"></path><path id="SvgjsPath6320" d="M124.999 86.999L124.999 86.999l-7.031-5.608c-0.83 1.04-1.432 2.266-1.736 3.606l6.654 1.519L124.999 86.999z" fill="#393b97" stroke-width="none" opacity="1"></path><path id="SvgjsPath6321" d="M125 77.999c4.971 0 9 4.029 9 9s-4.029 9-9 9 -9-4.029-9-9S120.029 77.999 125 77.999z" fill="#000000" stroke-width="none" opacity="0.3"></path><path id="SvgjsPath6322" d="M128.5 86.999c0 1.933-1.566 3.5-3.5 3.5s-3.5-1.567-3.5-3.5 1.566-3.5 3.5-3.5S128.5 85.066 128.5 86.999z" fill="#000000" stroke-width="none" opacity="1"></path><path id="SvgjsPath6323" d="M121.653 93.108c-0.47 0.469-1.396 0.304-2.069-0.369 -0.674-0.673-0.84-1.601-0.369-2.07 0.469-0.47 1.395-0.304 2.068 0.369C121.956 91.712 122.122 92.639 121.653 93.108z" fill="#ffffff" stroke-width="none" opacity="0.7"></path><path id="SvgjsPath6324" d="M131.809 85.326c-0.702 0.703-2.403 0.142-3.8-1.254 -1.396-1.396-1.957-3.098-1.256-3.8 0.703-0.703 2.405-0.142 3.8 1.254C131.949 82.922 132.512 84.624 131.809 85.326z" fill="#ffffff" stroke-width="none" opacity="0.9"></path></g></g></g><g id="svga-group-eyesfront-right"><path id="SvgjsPath6277" d="M126.668 62.999c-9.94 0-18 11.193-18 25.001 0 13.808 8.06 24.999 18 24.999s18-11.191 18-24.999C144.668 74.191 136.608 62.999 126.668 62.999zM126.348 92.727c-8.774-0.476-13.61-3.56-13.61-3.56s5.817-6.338 13-7.285c4.54-0.6 12.405 0.896 13.631 2.075C137.939 89.309 132.127 93.042 126.348 92.727z" fill="#d9a494" stroke-width="none" opacity="1" stroke="none"></path><path id="SvgjsPath6278" d="M139.711 79.971c-1.742-6.956-10.781-10.79-20.195-8.565 -9.414 2.227-15.63 9.666-13.892 16.622 1.743 6.955 10.782 10.788 20.194 8.565C135.235 94.365 141.45 86.927 139.711 79.971zM126.348 92.727c-8.774-0.476-13.61-3.56-13.61-3.56s5.817-6.338 13-7.285c4.54-0.6 12.405 0.896 13.631 2.075C137.939 89.309 132.127 93.042 126.348 92.727z" fill="url(#SvgjsRadialGradient6279)" opacity="1"></path><path id="SvgjsPath6283" d="M139.368 83.957c-1.226-1.179-9.091-2.674-13.631-2.075 -7.183 0.947-13 7.285-13 7.285s4.836 3.083 13.61 3.56C132.127 93.042 137.939 89.309 139.368 83.957z" fill="url(#SvgjsRadialGradient6284)" opacity="1"></path><path id="SvgjsPath6287" d="M112.567 83.657c6.502-4.251 4.054-3.09 16.23-6.703 -3.344 0.5-9.572 2.066-11.707 3.32C115.927 80.928 113.567 82.783 112.567 83.657z" fill="#ab5a41" stroke-width="none" opacity="1" stroke="none"></path><path id="SvgjsPath6288" d="M140.17 82.871c1.761-1.139 2.628-1.965 2.628-1.965s-3.434 1.009-5.312 0.867c1.815-0.612 2.646-1.55 3.004-1.852 -0.427 0.321-2.619 1.531-10.669 0.435 1.75-0.681 6.399-1.769 6.399-1.769 -13.909 0.712-22.589 6.056-23.826 7.508 0 0 3.315-1.844 5.783-2.315 -5.405 2.926-4.993 3.854-8.891 5.423 4.964 0.551 4.778 1.325 7.773 2.07 6.116 1.537 12.523 2.511 18.014-0.643 3.632-2.085 5.744-5.579 5.873-6.344 1.629-0.001 3.713-1.307 3.713-1.307S141.677 83.595 140.17 82.871zM126.348 92.533c-8.774-0.459-13.61-3.434-13.61-3.434s5.817-6.113 13-7.026c4.54-0.579 12.405 0.864 13.631 2.001C137.939 89.236 132.127 92.836 126.348 92.533z" fill="#2c1630" stroke-width="none" opacity="1" stroke="none"></path></g></g><g id="svga-group-facehighlight-single" ><path id="SvgjsPath6057" d="M140.204 113.007c0.035 22.275-17.995 40.365-40.273 40.396 -22.274 0.036-40.361-17.993-40.396-40.272C59.501 90.857 77.53 72.77 99.808 72.735 122.083 72.701 140.171 90.73 140.204 113.007z" fill="url(#SvgjsRadialGradient6058)" opacity="1"></path><path id="SvgjsPath6061" d="M135,55.999c0,19.329-15.671,35-35,35c-19.329,0-35-15.671-35-35s15.671-35,35-35C119.329,20.999,135,36.67,135,55.999z" fill="url(#SvgjsRadialGradient6062)" opacity="1"></path></g><g id="svga-group-eyebrows-left" ><path id="SvgjsPath6325" d="M59.396 69.48c16.138-1.701 18.92 1.72 27.556 5.214 0.474 0.186 1.583 0.391 1.88-0.098 0.787-1.312-3.254-3.205-4.65-3.819C75.041 66.529 69.36 66.685 59.396 69.48z" fill="#504543" stroke-width="none" opacity="1" stroke="none"></path></g><g id="svga-group-eyebrows-right" ><path id="SvgjsPath6326" d="M140.604 69.48c-5.06-0.533-9.441-1.2-17.854 1.08 -4.62 1.032-10.657 5.557-11.581 4.036 -1.089-1.815 11.254-8.648 22.768-6.707C137.227 68.468 136.765 68.403 140.604 69.48z" fill="#504543" stroke-width="none" opacity="1" stroke="none"></path></g><g id="svga-group-nose-single" ><path id="SvgjsPath6339" d="M108.922 115.926c0.172-0.464 0.276-0.95 0.358-1.437 0.03-0.18-0.207-0.842-0.228-0.632 -0.092 0.854-0.554 2.051-1.445 2.313 -1.022 0.299-1.61-0.05-1.703-1.063 -0.094-1.02 0.269-2.375-0.099-3.323 -0.238-0.613-0.773-1.111-1.321-1.456 0.413 1.849 0.743 4.265-1.02 5.589 0.151 0.18 0.289 0.266 0.422 0.302 -0.139 0.023-0.278 0.053-0.422 0.118 -0.697 0.317-3.238 0.92-3.978 0.596 -0.175-0.077-0.561-0.139-1.047-0.186 -0.326-0.286-0.924-1.031-1.203-1.204 -1.098-0.682-1.671-1.876-1.739-3.148 -0.147-2.679 1.239-5.664 4.39-6.829 -3.231-0.91-4.574 4.413-6.69 5.6 -1.267 0.711-2.476 1.342-2.453 2.929 0.007 0.525 0.07 1.286 0.307 1.925 -0.38-0.536-0.631-1.021-0.667-0.594 -0.309 3.608 4.084 2.615 5.457 2.864 1.134 0.205 3.081 0.493 4.027 0.51 1.027 0.018 2.582-0.342 3.596-0.51 0.982-0.165 2.696 0.033 3.957-0.535 0.744-0.336 1.812-0.556 1.812-2.005l-0.363 0.296C108.887 116.005 108.907 115.967 108.922 115.926z" fill="#ca8975" stroke-width="none" opacity="1" stroke="none"></path><path id="SvgjsPath6340" d="M90.631 113.653c0.136-0.436 0.335-0.872 0.66-1.201 -0.57 0.992-0.649 2.412-0.137 3.444 0.629 1.269 1.752 1 2.828 0.511s1.976-0.851 3.094-0.478c0.87 0.29 1.569 0.722 2.526 0.72 1.023-0.002 1.786-0.428 2.736-0.724 1.155-0.345 2.129-0.147 3.214 0.342 1.021 0.461 2.191 1.044 2.981-0.106 0.698-1.04 0.623-2.648 0.015-3.709 1.364 1.398 1.034 5.385-1.576 4.882 -0.358-0.073-0.991-0.512-1.311-0.425 -0.577 0.157-1.305 0.006-1.889-0.05 -1.061-0.103-1.982-0.099-2.991 0.158 -0.387 0.09-0.784 0.143-1.182 0.139 -0.474-0.005-0.954-0.241-1.404-0.214 -1.265 0.077-2.516-0.194-3.785-0.112 -1.081 0.069-1.945 1.023-3.018 0.159C90.445 116.193 90.3 114.78 90.631 113.653 90.7 113.431 90.5 114.099 90.631 113.653zM101.079 105.797c0.503 0.105 0.96 0.334 1.384 0.62 -1.257-2.003-4.454-1.277-5.726 0.313C98.038 106.036 99.59 105.465 101.079 105.797 101.32 105.848 100.598 105.689 101.079 105.797z" fill="#ab5a41" stroke-width="none" opacity="1" stroke="none"></path><path id="SvgjsPath6341" d="M91.934 113.093c-1.776 0.928 1.459 5.222 0.898 1.789C92.598 113.45 93.403 112.469 91.934 113.093 91.338 113.348 92.263 112.921 91.934 113.093z" fill="#e8c1b6" stroke-width="none" opacity="1" stroke="none"></path></g><g id="svga-group-hair-front" ><path id="SvgjsPath6225" d="M57.629 133.691c-6.612-3.867-29.401-70.178-20.907-93.456 8.577-23.509 59.988-6.272 63.479-5.339 5.216 1.394 57.592-6.205 59.595-1.426 15.27 36.439-0.262 64.927-15.002 99.421 10.664 14.58-5.301 16.382-4.299 15.942 1.534-0.672 3.152-2.714 2.253-4.937 -1.435-3.541-9.337-2.81-0.948-16.064 5.208-8.226 6.732-19.776 6.704-22.499 -1.836 2.651-4.881 6.507-7.36 8.521 2.591-5.767 3.497-14.369 3.957-19.014 0.236-2.495 0.911-0.171-5.716-9.971 -4.734-7.01-10.655-17.373-14.39-27.647 -2.289 7.581-0.315 17.827 1.54 25.841C108.48 71.151 99.915 47.771 98.145 44.738c0.165 8.301 4.133 20.484 7.891 29.271 -9.71-8.269-18.747-16.72-22.333-29.279 -4.13 15.52-1.364 35.925 6.667 55.27C70.88 80.628 75.271 56.426 76.036 50.397c-3.372 4.796-18.619 26.506-14.329 53.511 -0.994-1.937-2.046-5.675-2.942-7.781 -4.324-2.457-6.563-4.633-9.199-7.761 -0.53 17.986 2.282 21.945 4.545 31.428 2.186 9.158 10.366 12.117 10.875 12.883 1.083 1.632 1.007 3.749-0.197 5.525 -1.391 2.051-4.354 2.473-6.022 4.591 -2.175 2.761-0.206 4.587 1.102 6.041C61.555 150.709 49.869 148.834 57.629 133.691z" fill="#504543" stroke-width="none" opacity="0.1" stroke="none"></path><path id="SvgjsPath6226" d="M61.75 161.102c-2.981-2.862-6.501-7.189-6.797-11.334 -3.167-1.262-4.874-3.618-4.569-6.304 0.455-4.001 3.883-5.615 5.786-10.632 -6.844-4.002-11.052-10.324-13.432-17.465 -19.063-18.333-17-55.181-8.208-79.279C43.406 11.752 69.174-6.6 94.468-6.6c4.017 0 7.888 0.49 11.502 1.456 5.399 1.443 1.841 0.187 9.986 0.187 14.863 0 29.215 6.956 37.447 18.154 3.812 5.183 6.447 10.941 8.521 15.889 7.763 18.525 9.767 32.241 7.654 52.414 -2.904 27.719-11.465 32.103-12.689 34.706 -2.408 5.098-5.998 10.588-10.273 14.284 -0.761 0.66-0.814 0.695-0.221 1.515 3.078 4.173 4.189 6.233 4.585 8.313 1.146 6.041-5.797 8.527-6.807 9.094l-0.314 0.019c0.824 8.229-0.423 10.485-7.871 11.144 9.562-9.181-2.143-9.896 5.657-13.314 1.588-0.694 3.564-1.559 2.633-3.86 -1.484-3.663-9.665-2.908-0.981-16.631 5.392-8.514 6.969-20.472 6.939-23.289 -1.901 2.744-5.052 6.735-7.618 8.821 2.681-5.969 3.618-12.804 4.095-17.613 0.246-2.583 0.943-0.177-5.915-10.322 -4.902-7.256-11.029-16.949-14.896-27.585l-0.979 0.136c-0.603 7.955-0.991 15.73 0.76 23.296C106.994 67.88 99.94 45.235 98.108 42.095c0.17 8.593 2.145 19.269 6.034 28.366 -10.051-8.559-16.24-14.763-19.953-27.764 -4.275 16.066-3.942 33.111 4.371 53.136C68.388 75.779 75.511 54.06 76.302 47.82c-3.364 4.785-7.067 10.404-9.17 14.275 -4.99 9.181-8.57 27.128-6.811 38.203 -1.03-2.005-2.049-4.171-2.975-6.352 -4.477-2.544-6.793-4.797-9.523-8.034 -0.548 18.62 2.361 22.718 4.705 32.535 2.262 9.478 10.73 12.542 11.257 13.335 1.121 1.689 1.043 3.881-0.204 5.72 -1.44 2.123-4.506 2.562-6.233 4.752 -2.252 2.858 1.259 4.932 2.613 6.438 1.745 1.94 1.19 3.583 0.656 5.17C59.761 156.395 60.04 157.312 61.75 161.102z" fill="#504543" stroke-width="none" opacity="1" stroke="none"></path><path id="SvgjsPath6227" d="M161.924 29.085c-0.062-0.147-6.606-10.937-6.669-11.085 9.52 18.403 12.946 48.244 8.745 67 0-12 1.119-27.515-4.893-39.076 2.421 14.992 3.554 29.455-2.236 41.624 0.939-15.687 0.108-34.531-10.277-48.315 1.946 8.449 2.892 15.427 1.912 27.012 -1.62-8.098-5.73-13.827-12.693-20.603C139.813 55.642 138 60 139 71c-4-13-10.329-25.513-5.104-40.418C125.896 36.582 122 44 122 54c-6-10-7.131-18.808-5-33 -8.692 11.971-5.677 25.533-1.965 38.886C107.418 48.284 102.262 36.513 101 22c-1.688 7.597-5.508 13.772-7.862 20.925C91.393 34.602 91 25.831 91 18c-0.822 7.396-5.691 13.442-9.067 20.356C82.438 34.237 83.416 30.119 85 26c-12.479 9.805-17.909 25.266-23.878 39.821 0.901-12.124 7.522-24.509 13.645-35.085C61 37.958 52 55 49 71c-4-16-3.059-33.616 3.07-49C38.07 36 40 58 36 76c-4.214-20.229 2.938-39.748 9.482-58.556 -20.211 23.94-25.154 76.372-2.745 97.923 2.38 7.141 6.588 13.463 13.432 17.465 -1.903 5.017-5.331 6.631-5.786 10.632 -0.305 2.686 1.402 5.042 4.569 6.304 0.296 4.145 3.816 8.472 6.797 11.334 -1.709-3.79-1.989-4.707-1.133-7.24 0.535-1.587 1.089-3.229-0.656-5.17 -1.436-1.597-6.407-4.529-0.608-8.125 0.647-2.882 4.153-6.311 0.648-7.566 -10.881-5.015-16.631-40.015-12.229-44.641 0.011-0.79 0.026-1.599 0.051-2.447 2.73 3.237 5.046 5.49 9.523 8.034 0.926 2.181 1.945 4.346 2.975 6.352 -1.523-9.588-1.806-16.874-1.162-22.47 1.154-10.04 9.484-22.401 17.144-30.008 -1.853 14.888 3.415 33.161 10.997 44.832 -6.189-16.326-7.171-34.835-2.542-52.236 0.343 5.191 9.116 17.557 18.385 27.045 -1.077-2.52-0.993-2.165-1.779-4.849 -2.051-7.006-4.08-15.606-3.255-22.517 4.636 10.154 12.939 23.72 27.574 40.116 -2.043-8.826-1.298-19.285-0.087-28.317 0.915 5.381 21.176 41.105 22.296 39.515 -0.477 4.809-2.594 14.921-5.274 20.89 5.702-4.636 6.839-8.812 9.164-12.299 0.092 4.507 0.827 7.33 0.305 11.733 -1.546 13.021-9.388 19.206-9.808 22.38C141.971 136.438 147 144 145 145c-1.945 1.945-4.358 3.184-6.215 4.745 -0.045 2 4.079 4.224-2.798 10.827 7.448-0.658 8.695-2.915 7.871-11.144l0.314-0.019c1.01-0.566 7.952-3.053 6.807-9.094 -0.396-2.079-1.507-4.14-4.585-8.313 -0.594-0.819-0.54-0.854 0.221-1.515 4.275-3.696 7.865-9.187 10.273-14.284 1.225-2.604 9.785-6.987 12.689-34.706C171.69 61.327 169.687 47.611 161.924 29.085z" fill="#413230" stroke-width="none" opacity="1" stroke="none"></path><path id="SvgjsPath6228" d="M116.331 15.911c27.883 5.279 38.779 28.461 38.74 56.792C155.353 75.736 155.179 25.249 116.331 15.911zM55.224 39.538c11.383-17.409 19.6-25.868 42.357-33.47C78.476 9.979 62.101 21.038 55.224 39.538zM115.455 61.433c1.223 1.665 1.982 2.651 1.837 2.452 -8.13-12.431-12.066-37.167-6.56-50.214C103.728 27.391 107.434 47.709 115.455 61.433z" fill="#31221f" stroke-width="none" opacity="1" stroke="none"></path><path id="SvgjsPath6229" d="M55.277 28.081C58.86 11.696 75.536 7.805 82.56 5.426 83.56 5.115 60.156 11.478 55.277 28.081zM85.206-0.777c-5.39 1.675-19.758 4.601-25.099 14.965C65.867 4.612 87.224-1.345 85.206-0.777zM48.44 66.409c2.135-12.675 6.822-27.444 17.719-34.26C49.273 40.875 48.199 67.409 48.44 66.409zM85.903 21.953c-1.513 1.412-8.565 3.983-12.548 15.405C77.955 27.436 86.903 21.199 85.903 21.953zM97.256 25.688c2.316-4.29 3.218-13.392 3.048-12.391 -3.959 15.553-5.708 13.756-7.069 20.74C94.323 30.282 95.766 28.565 97.256 25.688zM107.613 39.32c-0.023-0.065-4.192-18.694-4.409-22.083C102.832 27.073 107.87 40.32 107.613 39.32zM100.198 9.625C82.971 14.02 78.703 19.02 71.132 27.032 81.036 18.328 89.728 12.961 100.198 9.625zM142.973 10.317c1.316 0.855 2.118 1.371 1.963 1.264C131.648 1.616 124.671-0.495 107.07 3 121.639 1.087 130.441 2.439 142.973 10.317zM148.181 29.157c-3.91-8.005-15.645-17.562-37.848-21.723C124.505 11.221 139.298 17.625 148.181 29.157zM121.308 41.448c-0.119 2.197-0.222 4.204-0.208 4.025 2.366-15.428 3.443-14.75 6.214-17.704C122.563 31.155 121.587 35.683 121.308 41.448zM143.806 50.151c0.316 2.253 0.466 4.354 0.465 4.164 -0.37-3.783 1.774-12.464-6.8-18.022C141.469 39.107 142.943 43.598 143.806 50.151zM148.253 101.28c0.352-1.571 8.625-12.909 2.194-33.467C155.32 88.135 147.832 102.28 148.253 101.28zM33.111 86.875c0.239 8.471 3.932 14.917 3.452 13.826 -3.363-8.695-2.721-16.015-3.531-24.3C33.114 80.761 33 84.753 33.111 86.875zM47.346 118.432c1.779 4.057 5.413 8.021 4.629 7.032 -2.057-4.475-8.883-9.73-8.056-34.409 -0.023-1.896-0.091-3.388-0.115-4.061C43.456 96.875 41.083 103.958 47.346 118.432zM151.818 117.633c2.697-4.391 2.674-7.602 3.082-9.792 0.174-1 0.752-9.81 1.549-11.164C154.204 100.718 154.725 113.745 151.818 117.633zM146.972 145.028c0.033-0.082 0.514-0.981 0.839-2.011 1.17-3.478-0.008-6.069-1.493-6.983C149.753 139.279 146.437 146.139 146.972 145.028zM54.677 146.42c0.651 1.356 1.38 2.517 1.323 2.407 -0.06-0.105-0.626-1.371-1.083-2.734 -2.345-6.632 0.589-8.037 1.549-9.037C52.87 139.399 52.782 142.607 54.677 146.42zM50.68 44.15c1.049-3.877 1.082-13.003 12.174-22.999C49.391 31.723 50.591 45.15 50.68 44.15zM45.839 71.672c2.536 7.313 5.401 12.11 5.041 11.381 -4.983-11.22-6.331-20.062-7.061-32.261C43.731 57.64 43.769 65.068 45.839 71.672z" fill="#5f5a59" stroke-width="none" opacity="1" stroke="none"></path><path id="SvgjsPath6230" d="M162.39 28.89c-2.34-5.58-4.981-11.101-8.579-15.993 -9.956-13.54-27.921-19.924-43.237-18.034 -2.844 0.351-0.772 0.494-4.474-0.495C80.189-12.556 45.134 5.539 34.055 35.915c-8.02 21.979-11.963 60.397 8.243 79.732 2.147 6.442 7.023 13.698 13.569 17.234 -1.386 3.654-5.504 6.291-5.985 10.522 -0.367 3.22 1.829 5.617 4.884 6.832 0 0-0.207 5.388 8.204 12.659 -0.676-2.535-2.872-5.17-2.181-7.887 0.454-1.786 1.905-4.034-0.453-6.654 -1.434-1.598-4.527-3.329-2.592-5.787 1.648-2.09 4.725-2.523 6.255-4.782 1.291-1.9 1.447-4.288 0.206-6.281 -1.002-1.609-4.499-2.601-7.917-6.589 -3.229-5.582-4.885-13.804-4.827-13.553 -1.069-4.619-3.577-10.359-3.171-24.114 2.413 2.865 5.402 5.2 8.659 7.052 1.488 3.492 3.236 6.972 4.759 9.608 -3.563-10.35 0.415-31.537 5.869-41.572 2.38-4.382 5.115-8.56 7.982-12.638 -4.456 17.954-0.244 34.771 14.438 48.198 -8.866-20.063-9.707-38.563-5.789-53.299 4.031 14.112 15.203 22.396 21.296 27.69 -4.063-8.899-6.776-18.665-6.971-28.479 5.402 14.943 15.374 29.721 27.947 37.51 -2.1-7.947-1.667-16.252-1.053-24.368 3.575 9.837 9.111 19.053 14.951 27.695 6.811 10.073 6.06 7.634 5.83 9.988 -0.645 6.535-1.892 13.59-4.99 19.363 3.345-2.392 6.196-5.299 8.537-8.677 -0.508 3.692-2.669 13.719-4.604 17.366 -3.176 5.99-9.864 12.83-4.158 18.1 0.903 0.834 2.336 1.615 2.815 2.8 1.538 3.796-6.441 2.563-5.353 7.087 0.514 2.117 3.698 3.725-3.864 10.504 9.149-0.515 10.656-2.949 9.769-11.801 5.477-1.64 7.765-5.732 7.115-9.155 -0.589-3.118-2.894-5.619-4.953-8.411 -0.603-0.819-0.697-0.259 1.308-2.167 6.722-6.366 9.543-13.409 9.686-13.564 5.021-5.484 10.325-13.163 12.564-34.528C172.303 60.341 169.715 46.366 162.39 28.89zM158.574 112.768c1.661-5.271 2.03-10.921 2.794-16.366 0.896-6.387 1.843-10.166 0.44-17.234 0.565 5.189-0.134 10.053-1.259 15.117 -3.18 14.343-4.411 29.346-18.271 39.829 1.24-0.833 2.435-1.734 3.567-2.707 2 3.382 5.05 7.096 4.246 11.309 -1.061 5.587-7.55 6.776-8.561 7.25 0.642-0.309 1.411-0.166 2.081-0.385 -0.058 6.452-0.738 9.236-6.829 10.548 7.247-6.441 2.124-8.645 3.333-10.931 0.601-0.869 2.277-0.854 3.177-1.268 2.404-1.096 3.169-4.17 1.593-6.247 -0.65-0.857-1.505-1.529-2.274-2.273 -5.171-4.993 3.805-12.551 5.271-19.341 4.563-21.111 1.171-13.085 4.276-18.594 11.841-20.99 13.175-45.767 0.97-72.153 -5.279-11.41-10.628-14.715-20.317-20.93 4.786 3.485 9.736 6.784 13.518 11.421 7.229 8.865 11.533 28.412 12.177 33.916 2.722 23.318-4.577 45.709-13.428 55.394 6.54-16.273 5.033-42.682-8.518-62.19 8.791 14.386 11.366 31.02 9.932 44.338 -0.675-1.027-21.199-33.052-20.847-36.851 0.714-7.752 2.072-15.83 6.944-21.854 -5.18 5.642-6.914 13.307-7.919 20.692 -1.357 9.937-2.328 16.275 0.059 25.525 -8.288-6.677-20.146-21.677-26.207-37.479 0.051-4.832 0.538-9.673 1.203-14.477 -3.002 15.009-3.305 27.538 2.606 40.984C75.75 39.377 86.684 47.906 90.561 19.241c-3.842 19.629-19.459 40.447-4.022 73.432 -19.058-24.849-8.68-49.005-3.536-64.129 -9.467 22.398-4.172 15.077-9.085 21.599 -2.896 3.842-5.744 7.767-8.241 11.911 -5.444 9.521-7.562 24.729-5.84 35.559C47.935 69.202 54.137 54.737 73.941 31 47.894 58.183 48.266 73.21 56.321 92.786c-21.693-14.969-19.012-57.08-0.556-74.949C41.977 29.782 37.037 52.599 39.162 66.678c1.638 10.852 8.192 19.83 8.192 19.83 -1.28 14.277 1.008 19.091 2.357 25.23 0.493 2.243 1.729 6.635 2.379 8.874 1.766 6.076 8.313 10.572 9.051 11.04 8.5 5.389-8.639 7.313-4.613 14.558 1.521 2.735 4.081 2.396 3.302 6.821 -0.301 1.711-0.717 3.248-0.094 4.936 -1.451-1.892-4.611-5.343-4.459-8.239 -8.529-7.013-0.6-10.765 0.983-16.634 1.566 0.837 3.204 1.54 4.87 2.153 -9.07-4.363-14.533-8.839-18.78-24.976 -2.253-8.563-2.969-26.577-2.76-35.943 -0.838 10.653-1.098 30.079 2.091 39.621 -16.431-17.284-13.2-48.36-6.951-71.432C44.655 5.873 82.039-11.93 107.514-4.642c-6.264 1.298-10.079 3.359-15.194 7.244C108.736-8.911 128.94-5.2 142.166 4.05 169.61 23.234 175.418 90.133 158.574 112.768z" fill="#221512" stroke-width="none" opacity="1" stroke="none"></path></g><g id="svga-group-glasses-single" ><path id="SvgjsPath6327" d="M143.62 100.1c-2.36 2.2-6.23 3.04-13.56 3.04 -9.78 0-16.18-1.09-20.41-9.51 -3.29-6.54-4.62-13.56-3.02-15.98 2.21-3.34 8.57-5.61 15.67-6.28C134.63 77.23 143.29 88.98 143.62 100.1zM72.01 71.17c-7.64 0.21-15.09 2.35-18.27 7.05 -2.18 3.21-1.69 12.55-0.22 16.94 2 5.99 5.07 7.98 16.42 7.98 9.78 0 16.18-1.09 20.41-9.51 0.42-0.84 0.81-1.69 1.17-2.54C88.29 82.95 81.16 75.43 72.01 71.17z" fill="#ffffff" stroke-width="none" opacity="0.2"></path><path id="SvgjsPath6328" d="M146.48 95.17c-0.71 2.12-1.56 3.73-2.86 4.94 -0.33-11.12-8.99-22.87-21.33-28.74 9.37-0.89 19.99 0.99 23.97 6.86C148.44 81.44 147.95 90.77 146.48 95.17zM93.38 77.65c-2.79-4.23-12.22-6.73-21.37-6.47 9.16 4.25 16.28 11.77 19.52 19.92C93.94 85.36 94.77 79.76 93.38 77.65z" fill="#ffffff" stroke-width="none" opacity="0.4"></path><path id="SvgjsPath6329" d="M151.79 73.61c-10.18-5.46-36.14-7.01-45.5 0.15 -0.8 0.47-4.23-0.53-6.29-0.53 -1.95 0-5.42 1.05-6.29 0.53 -9.36-7.16-35.32-5.61-45.5-0.15 -1.46 0.79-1.62 4.51-0.35 5.08 0.91 0.41 1.51 0.98 1.46 1.98C49 86.29 50.55 93.59 51.23 95.6c0.87 2.59 2.44 7.41 9.29 8.6 5.83 1.01 16.43 1.48 21.94-0.17 9.99-2.98 14.24-18.04 14.42-23.17l0.01 0.02c0.4-1.8 5.82-1.8 6.23 0l0.01-0.02c0.17 5.13 4.43 20.19 14.42 23.17 5.51 1.65 16.11 1.18 21.94 0.17 6.85-1.19 8.42-6.01 9.29-8.6 0.68-2.02 2.23-9.31 1.92-14.93 -0.05-1 0.56-1.57 1.46-1.98C153.41 78.12 153.25 74.4 151.79 73.61zM81.41 101.36c-5.06 1.51-14.32 1.61-19.71 0.67 -4.54-0.79-6.44-3.26-7.7-7.03 -1.48-4.4-1.87-13.51 0.16-16.5 6.76-9.98 33.87-8.05 38.8-0.58C95.16 81.27 90.89 98.53 81.41 101.36zM146 95.01c-1.26 3.77-3.17 6.24-7.7 7.03 -5.39 0.94-14.65 0.84-19.71-0.67 -9.48-2.83-13.75-20.09-11.55-23.44 4.93-7.47 32.04-9.4 38.8 0.58C147.87 81.49 147.48 90.61 146 95.01z" fill="#2c2c2c" stroke-width="none" opacity="1" stroke="none"></path><path id="SvgjsPath6330" d="M118.58 101.32c2.79 0.83 6.86 1.24 10.85 1.27 -12.54 1.22-15.39-3.4-17.12-5.16 -3.52-3.59-5.69-8.95-5.85-16.65C106.49 86.86 110.76 98.99 118.58 101.32zM93.69 73.72c-9.36-7.16-35.32-5.62-45.5-0.15C71.43 67.05 84.93 70.42 93.69 73.72zM61.68 102c-4.54-0.79-6.44-3.26-7.7-7.03 -1.32-3.93-1.77-11.62-0.4-15.35 -1.83 4.22-1.12 12.39 0.26 16.5 1.6 4.8 4.54 7.18 17.34 6.46C67.71 102.65 64.25 102.44 61.68 102zM152.97 76.3c-0.04-1.13-0.45-2.32-1.2-2.73 -9.98-5.36-35.14-6.94-44.93-0.25C120 68.05 138.97 67.31 152.97 76.3z" fill="#3b3b3b" stroke-width="none" opacity="1" stroke="none"></path></g></g></g><rect id="SvgjsRect6042" width="200" height="15" x="0" y="185" fill="#ecf0f1" opacity="0.5" style="display:none;"></rect><text id="SvgjsText6043" font-family="&quot;Roboto&quot;, &quot;Helvetica Neue&quot;, Helvetica, Arial, sans-serif" style="font-size:0.84em;font-family:&quot;Roboto&quot;, &quot;Helvetica Neue&quot;, Helvetica, Arial, sans-serif;text-anchor:middle;font-weight:400;display:none;" font-size="0.84em" text-anchor="middle" font-weight="400" fill="#000000" x="100" y="185"><tspan id="SvgjsTspan6044" dy="1.2em" x="100" style="font-size:0.84em;font-family:&quot;Roboto&quot;, &quot;Helvetica Neue&quot;, Helvetica, Arial, sans-serif;text-anchor:middle;font-weight:400;">Created by face.co</tspan></text></g><defs id="SvgjsDefs6010"><radialGradient id="SvgjsRadialGradient6058" cx="100" cy="113" r="40" gradientUnits="userSpaceOnUse" class="svga-on-canvas-facehighlight-gradient-single-0"><stop id="SvgjsStop6059" stop-opacity="0.5" stop-color="#e8c1b6" offset="0" ></stop><stop id="SvgjsStop6060" stop-opacity="0" stop-color="#d9a494" offset="0.9" ></stop></radialGradient><radialGradient id="SvgjsRadialGradient6062" cx="100" cy="57" r="36" gradientUnits="userSpaceOnUse" class="svga-on-canvas-facehighlight-gradient-single-1"><stop id="SvgjsStop6063" stop-opacity="0.5" stop-color="#e8c1b6" offset="0" ></stop><stop id="SvgjsStop6064" stop-opacity="0" stop-color="#d9a494" offset="0.9" ></stop></radialGradient><radialGradient id="SvgjsRadialGradient6143" cx="-558.588" cy="-490.918" r="84.646" gradientTransform="matrix(0.096 -0.0248 0.0245 0.0961 140.5478 120.3577)" gradientUnits="userSpaceOnUse" class="svga-on-canvas-eyesiris-gradient-left-1"><stop id="SvgjsStop6144" stop-opacity="0.8" stop-color="#ffffff" offset="0" ></stop><stop id="SvgjsStop6145" stop-opacity="0" stop-color="#ffffff" offset="1" ></stop></radialGradient><radialGradient id="SvgjsRadialGradient6147" cx="-565.337" cy="-492.691" r="84.644" gradientTransform="matrix(0.0991 8.856325e-004 -0.0011 0.0991 130.3774 136.3533)" gradientUnits="userSpaceOnUse" class="svga-on-canvas-eyesiris-gradient-left-2"><stop id="SvgjsStop6148" stop-opacity="0.8" stop-color="#ffffff" offset="0" ></stop><stop id="SvgjsStop6149" stop-opacity="0" stop-color="#ffffff" offset="1" ></stop></radialGradient><linearGradient id="SvgjsLinearGradient6153" x1="122.283" y1="93.047" x2="123.61" y2="91.466" gradientTransform="matrix(1 0 0 1 -52 0)" gradientUnits="userSpaceOnUse" class="svga-on-canvas-eyesiris-gradient-left-5"><stop id="SvgjsStop6154" stop-opacity="1" stop-color="#ffffff" offset="0" ></stop><stop id="SvgjsStop6155" stop-opacity="0" stop-color="#ffffff" offset="1" ></stop></linearGradient><linearGradient id="SvgjsLinearGradient6157" x1="127" y1="85" x2="125" y2="87" gradientTransform="matrix(1 0 0 1 -50 0)" gradientUnits="userSpaceOnUse" class="svga-on-canvas-eyesiris-gradient-left-6"><stop id="SvgjsStop6158" stop-opacity="1" stop-color="#ffffff" offset="0" ></stop><stop id="SvgjsStop6159" stop-opacity="0" stop-color="#ffffff" offset="1" ></stop></linearGradient><linearGradient id="SvgjsLinearGradient6161" x1="130" y1="81" x2="126" y2="85" gradientTransform="matrix(1 0 0 1 -50 0)" gradientUnits="userSpaceOnUse" class="svga-on-canvas-eyesiris-gradient-left-7"><stop id="SvgjsStop6162" stop-opacity="1" stop-color="#ffffff" offset="0" ></stop><stop id="SvgjsStop6163" stop-opacity="0" stop-color="#ffffff" offset="1" ></stop></linearGradient><radialGradient id="SvgjsRadialGradient6166" cx="-578.76" cy="-490.73" r="84.646" gradientTransform="matrix(0.096 -0.0248 0.0245 0.0961 192.4794 119.8404)" gradientUnits="userSpaceOnUse" class="svga-on-canvas-eyesiris-gradient-right-1"><stop id="SvgjsStop6167" stop-opacity="0.8" stop-color="#ffffff" offset="0" ></stop><stop id="SvgjsStop6168" stop-opacity="0" stop-color="#ffffff" offset="1" ></stop></radialGradient><radialGradient id="SvgjsRadialGradient6170" cx="-584.778" cy="-487.329" r="84.644" gradientTransform="matrix(0.0991 8.856325e-004 -0.0011 0.0991 182.3104 135.839)" gradientUnits="userSpaceOnUse" class="svga-on-canvas-eyesiris-gradient-right-2"><stop id="SvgjsStop6171" stop-opacity="0.8" stop-color="#ffffff" offset="0" ></stop><stop id="SvgjsStop6172" stop-opacity="0" stop-color="#ffffff" offset="1" ></stop></radialGradient><linearGradient id="SvgjsLinearGradient6176" x1="120.284" y1="93.047" x2="121.611" y2="91.467" gradientUnits="userSpaceOnUse" class="svga-on-canvas-eyesiris-gradient-right-5"><stop id="SvgjsStop6177" stop-opacity="1" stop-color="#ffffff" offset="0" ></stop><stop id="SvgjsStop6178" stop-opacity="0" stop-color="#ffffff" offset="1" ></stop></linearGradient><linearGradient id="SvgjsLinearGradient6180" x1="127" y1="85" x2="125" y2="87" gradientUnits="userSpaceOnUse" class="svga-on-canvas-eyesiris-gradient-right-6"><stop id="SvgjsStop6181" stop-opacity="1" stop-color="#ffffff" offset="0" ></stop><stop id="SvgjsStop6182" stop-opacity="0" stop-color="#ffffff" offset="1" ></stop></linearGradient><linearGradient id="SvgjsLinearGradient6184" x1="130" y1="81" x2="126" y2="85" gradientUnits="userSpaceOnUse" class="svga-on-canvas-eyesiris-gradient-right-7"><stop id="SvgjsStop6185" stop-opacity="1" stop-color="#ffffff" offset="0" ></stop><stop id="SvgjsStop6186" stop-opacity="0" stop-color="#ffffff" offset="1" ></stop></linearGradient><radialGradient id="SvgjsRadialGradient6232" cx="126.403" cy="87.57" r="15.179" gradientTransform="matrix(-0.9148 0.0479 0.0523 0.9986 184.4314 -6.6017)" gradientUnits="userSpaceOnUse" class="svga-on-canvas-eyesback-gradient-left-0"><stop id="SvgjsStop6233" stop-opacity="1" stop-color="#ffffff" offset="0" ></stop><stop id="SvgjsStop6234" stop-opacity="1" stop-color="#fdfefe" offset="0.544" ></stop><stop id="SvgjsStop6235" stop-opacity="1" stop-color="#f6f8f9" offset="0.74" ></stop><stop id="SvgjsStop6236" stop-opacity="1" stop-color="#eaeff2" offset="0.879" ></stop><stop id="SvgjsStop6237" stop-opacity="1" stop-color="#d9e3e8" offset="0.992" ></stop><stop id="SvgjsStop6238" stop-opacity="1" stop-color="#d8e2e7" offset="1" ></stop></radialGradient><radialGradient id="SvgjsRadialGradient6240" cx="126.401" cy="87.57" r="15.179" gradientTransform="matrix(0.9148 0.0479 -0.0523 0.9986 15.5691 -6.6017)" gradientUnits="userSpaceOnUse" class="svga-on-canvas-eyesback-gradient-right-0"><stop id="SvgjsStop6241" stop-opacity="1" stop-color="#ffffff" offset="0" ></stop><stop id="SvgjsStop6242" stop-opacity="1" stop-color="#fdfefe" offset="0.544" ></stop><stop id="SvgjsStop6243" stop-opacity="1" stop-color="#f6f8f9" offset="0.74" ></stop><stop id="SvgjsStop6244" stop-opacity="1" stop-color="#eaeff2" offset="0.879" ></stop><stop id="SvgjsStop6245" stop-opacity="1" stop-color="#d9e3e8" offset="0.992" ></stop><stop id="SvgjsStop6246" stop-opacity="1" stop-color="#d8e2e7" offset="1" ></stop></radialGradient><radialGradient id="SvgjsRadialGradient6248" cx="126.403" cy="87.57" r="15.179" gradientTransform="matrix(-0.9148 0.0479 0.0523 0.9986 184.4314 -6.6017)" gradientUnits="userSpaceOnUse" class="svga-on-canvas-eyesfront-gradient-left-0"><stop id="SvgjsStop6249" stop-opacity="1" stop-color="#ffffff" offset="0" ></stop><stop id="SvgjsStop6250" stop-opacity="1" stop-color="#fdfefe" offset="0.544" ></stop><stop id="SvgjsStop6251" stop-opacity="1" stop-color="#f6f8f9" offset="0.74" ></stop><stop id="SvgjsStop6252" stop-opacity="1" stop-color="#eaeff2" offset="0.879" ></stop><stop id="SvgjsStop6253" stop-opacity="1" stop-color="#d9e3e8" offset="0.992" ></stop><stop id="SvgjsStop6254" stop-opacity="1" stop-color="#d8e2e7" offset="1" ></stop></radialGradient><radialGradient id="SvgjsRadialGradient6258" cx="122.581" cy="83.48" fx="136.229" fy="83.114" r="16.914" gradientTransform="matrix(0.99 0.1411 0.1085 -0.7608 -52.9892 129.6892)" gradientUnits="userSpaceOnUse" class="svga-on-canvas-eyesfront-gradient-left-3"><stop id="SvgjsStop6259" stop-opacity="1" stop-color="#ca8975" offset="0" ></stop><stop id="SvgjsStop6260" stop-opacity="0.3" stop-color="#ca8975" offset="0.7" ></stop><stop id="SvgjsStop6261" stop-opacity="0" stop-color="#d9a494" offset="1" ></stop></radialGradient><radialGradient id="SvgjsRadialGradient6263" cx="70.243" cy="108.081" r="29.51" gradientTransform="matrix(1.0336 0 0 1.0336 -1.941 1.8777)" gradientUnits="userSpaceOnUse" class="svga-on-canvas-eyesfront-gradient-left-4"><stop id="SvgjsStop6264" stop-opacity="0" stop-color="#000000" offset="0.95" ></stop><stop id="SvgjsStop6265" stop-opacity="0.3" stop-color="#000000" offset="1" ></stop></radialGradient><radialGradient id="SvgjsRadialGradient6269" cx="126.401" cy="87.57" r="15.179" gradientTransform="matrix(0.9148 0.0479 -0.0523 0.9986 15.5691 -6.6017)" gradientUnits="userSpaceOnUse" class="svga-on-canvas-eyesfront-gradient-right-0"><stop id="SvgjsStop6270" stop-opacity="1" stop-color="#ffffff" offset="0" ></stop><stop id="SvgjsStop6271" stop-opacity="1" stop-color="#fdfefe" offset="0.544" ></stop><stop id="SvgjsStop6272" stop-opacity="1" stop-color="#f6f8f9" offset="0.74" ></stop><stop id="SvgjsStop6273" stop-opacity="1" stop-color="#eaeff2" offset="0.879" ></stop><stop id="SvgjsStop6274" stop-opacity="1" stop-color="#d9e3e8" offset="0.992" ></stop><stop id="SvgjsStop6275" stop-opacity="1" stop-color="#d8e2e7" offset="1" ></stop></radialGradient><radialGradient id="SvgjsRadialGradient6279" cx="122.581" cy="83.48" fx="136.229" fy="83.114" r="16.914" gradientTransform="matrix(-0.99 0.1411 -0.1085 -0.7608 252.9892 129.6892)" gradientUnits="userSpaceOnUse" class="svga-on-canvas-eyesfront-gradient-right-3"><stop id="SvgjsStop6280" stop-opacity="1" stop-color="#ca8975" offset="0" ></stop><stop id="SvgjsStop6281" stop-opacity="0.3" stop-color="#ca8975" offset="0.7" ></stop><stop id="SvgjsStop6282" stop-opacity="0" stop-color="#d9a494" offset="1" ></stop></radialGradient><radialGradient id="SvgjsRadialGradient6284" cx="70.243" cy="108.081" r="29.509" gradientTransform="matrix(-1.0336 0 0 1.0336 201.941 1.8777)" gradientUnits="userSpaceOnUse" class="svga-on-canvas-eyesfront-gradient-right-4"><stop id="SvgjsStop6285" stop-opacity="0" stop-color="#000000" offset="0.95" ></stop><stop id="SvgjsStop6286" stop-opacity="0.3" stop-color="#000000" offset="1" ></stop></radialGradient><linearGradient id="SvgjsLinearGradient6332" x1="100" y1="141" x2="100" y2="138" gradientUnits="userSpaceOnUse" class="svga-on-canvas-mouth-gradient-single-0"><stop id="SvgjsStop6333" stop-opacity="1" stop-color="#d19684" offset="0.1" ></stop><stop id="SvgjsStop6334" stop-opacity="1" stop-color="#ca8975" offset="1" ></stop></linearGradient><linearGradient id="SvgjsLinearGradient6362" x1="99.98" y1="171.27" x2="99.98" y2="136.351" gradientUnits="userSpaceOnUse" class="svga-on-canvas-chinshadow-gradient-single-0"><stop id="SvgjsStop6363" stop-opacity="0.8" stop-color="#ca8975" offset="0" ></stop><stop id="SvgjsStop6364" stop-opacity="1" stop-color="#ab5a41" offset="0.7" ></stop></linearGradient></defs></svg>